<?xml version="1.0" encoding="UTF-8" standalone="no"?>
<!--

    Copyright (c) 2018-2022 Red Hat, Inc.
    This program and the accompanying materials are made
    available under the terms of the Eclipse Public License 2.0
    which is available at https://www.eclipse.org/legal/epl-2.0/

    SPDX-License-Identifier: EPL-2.0

    Contributors:
    IBM Corporation - implementation

-->
<svg
  xmlns:dc="http://purl.org/dc/elements/1.1/" 
  xmlns:cc="http://creativecommons.org/ns#" 
  xmlns:rdf="http://www.w3.org/1999/02/22-rdf-syntax-ns#" 
  xmlns:svg="http://www.w3.org/2000/svg" 
  xmlns="http://www.w3.org/2000/svg" 
  xml:space="preserve" 
  style="enable-background:new 0 0 121 50;" 
  viewBox="0 0 121 50" 
  width="121" 
  height="50" 
  y="0px" 
  x="0px" 
  id="Layer_1" 
  version="1.1">
  <defs id="defs106" />
  <style id="style2" type="text/css">
    .st0 {
      display: none;
    }

    .st1 {
      display: inline;
    }

    .st2 {
      fill: #B73057;
    }

    .st3 {
      fill: #CC2028;
    }

    .st4 {
      fill: #88181B;
    }

    .st5 {
      fill: #FFFFFF;
    }
  </style>
  <path class="st5" d="M.5,20.45V9.25H1.73v11.2Z" />
  <path class="st5" d="M4.08,20.45V9.25H8.61a4.25,4.25,0,0,1,1.78.35,2.75,2.75,0,0,1,1.18,1A2.69,2.69,0,0,1,12,12.1a2.44,2.44,0,0,1-.53,1.59,2.86,2.86,0,0,1-1.45.93,3.33,3.33,0,0,1,1.77,1,2.53,2.53,0,0,1,.65,1.75A3,3,0,0,1,12,19a2.87,2.87,0,0,1-1.27,1.08,4.39,4.39,0,0,1-1.92.39Zm1.23-6.31h3.2a2.4,2.4,0,0,0,1.63-.52,1.72,1.72,0,0,0,.61-1.4,1.75,1.75,0,0,0-.61-1.4,2.45,2.45,0,0,0-1.63-.52H5.31Zm0,5.25H8.66a2.72,2.72,0,0,0,1.82-.58,1.94,1.94,0,0,0,.69-1.55,1.9,1.9,0,0,0-.68-1.53,2.71,2.71,0,0,0-1.83-.58H5.31Z" />
  <path class="st5" d="M14.3,20.45V9.25H16l3.74,8,3.75-8h1.71v11.2H24.05V10.7l-4.29,9-4.3-9v9.78Z" />
  <path class="st5" d="M32.5,20.45,30.08,9.25h1.25l1.9,9.26L36,9.25h1.2L40,18.48l1.92-9.23h1.2l-2.42,11.2H39.42l-2.83-9.51-2.85,9.51Z" />
  <path class="st5" d="M46.26,20.59a3.46,3.46,0,0,1-1.48-.3,2.43,2.43,0,0,1-1-.84,2.18,2.18,0,0,1-.36-1.24A2.13,2.13,0,0,1,43.79,17a2.45,2.45,0,0,1,1-.8,3.6,3.6,0,0,1,1.53-.29,5.75,5.75,0,0,1,1.27.14,3.81,3.81,0,0,1,1.12.47V15.42A1.89,1.89,0,0,0,48.22,14a2.07,2.07,0,0,0-1.5-.49,4,4,0,0,0-1.11.16,6.79,6.79,0,0,0-1.26.51l-.43-.9a6.88,6.88,0,0,1,2.94-.75,3.24,3.24,0,0,1,2.24.71,2.61,2.61,0,0,1,.79,2v5.19H48.74v-.91a3.6,3.6,0,0,1-1.14.79A3.52,3.52,0,0,1,46.26,20.59Zm-1.72-2.41a1.33,1.33,0,0,0,.54,1.1,2.24,2.24,0,0,0,1.42.42,3.13,3.13,0,0,0,1.2-.23,3.36,3.36,0,0,0,1-.67V17.3a3.82,3.82,0,0,0-1-.43,4.74,4.74,0,0,0-1.18-.13,2.41,2.41,0,0,0-1.44.39A1.22,1.22,0,0,0,44.54,18.18Z" />
  <path class="st5" d="M51.23,20.45v-.93l4.5-5.82H51.28V12.64h5.87v.91l-4.51,5.86,4.58,0v1.06Z" />
  <path class="st5" d="M59.22,10.7a.81.81,0,0,1-.6-.24.79.79,0,0,1-.25-.59.77.77,0,0,1,.25-.58.79.79,0,0,1,.6-.25.82.82,0,0,1,.6.25.8.8,0,0,1,.24.58.82.82,0,0,1-.24.59A.85.85,0,0,1,59.22,10.7Zm-.6,9.75V12.64h1.17v7.81Z" />
  <path class="st5" d="M66,20.45V13.6H64.21v-1H66V11a2.43,2.43,0,0,1,.61-1.78,2.32,2.32,0,0,1,1.73-.62,5.22,5.22,0,0,1,.58,0,2,2,0,0,1,.47.11V9.81a3.15,3.15,0,0,0-.94-.15,1.29,1.29,0,0,0-1,.33,1.49,1.49,0,0,0-.3,1v1.62h2.22v1H67.12v6.85Z" />
  <path class="st5" d="M73.54,20.58a3.71,3.71,0,0,1-2-.53,3.77,3.77,0,0,1-1.36-1.44,4.6,4.6,0,0,1,0-4.13A3.77,3.77,0,0,1,71.58,13a3.71,3.71,0,0,1,2-.53,3.6,3.6,0,0,1,1.92.53,3.75,3.75,0,0,1,1.35,1.44,4.16,4.16,0,0,1,.5,2.06,4.17,4.17,0,0,1-.5,2.07,3.75,3.75,0,0,1-1.35,1.44A3.6,3.6,0,0,1,73.54,20.58Zm0-1a2.43,2.43,0,0,0,1.36-.39,2.66,2.66,0,0,0,.93-1.08,3.56,3.56,0,0,0,0-3.08,2.7,2.7,0,0,0-.93-1.07,2.57,2.57,0,0,0-2.72,0A2.72,2.72,0,0,0,71.22,15a3.66,3.66,0,0,0,0,3.08,2.68,2.68,0,0,0,.94,1.08A2.41,2.41,0,0,0,73.52,19.55Z" />
  <path class="st5" d="M78.88,20.45V12.64h1.17v1.6A2.83,2.83,0,0,1,80.92,13a2,2,0,0,1,1.3-.46,2.38,2.38,0,0,1,.39,0,1.59,1.59,0,0,1,.35.08v1.06a2.73,2.73,0,0,0-.41-.1,2,2,0,0,0-.41,0,1.94,1.94,0,0,0-1.25.41,2.72,2.72,0,0,0-.84,1.17v5.33Z" />
  <path class="st5" d="M.51,37.45V26.25H4.22a6,6,0,0,1,2.27.42,5.21,5.21,0,0,1,1.77,1.19,5.44,5.44,0,0,1,1.16,1.77,6,6,0,0,1,.41,2.22,5.87,5.87,0,0,1-.41,2.21,5.48,5.48,0,0,1-1.16,1.78A5,5,0,0,1,6.49,37a5.78,5.78,0,0,1-2.27.43Zm1.24-1.11H4.3a4,4,0,0,0,2.18-.59A4.31,4.31,0,0,0,8,34.14a4.58,4.58,0,0,0,.57-2.29A4.64,4.64,0,0,0,8,29.55a4.46,4.46,0,0,0-1.53-1.61,4.09,4.09,0,0,0-2.18-.59H1.75Z" />
  <path class="st5" d="M15,37.61a3.69,3.69,0,0,1-2-.54,3.87,3.87,0,0,1-1.39-1.45,4.25,4.25,0,0,1-.52-2.08,4.38,4.38,0,0,1,.49-2.06A3.83,3.83,0,0,1,12.91,30a3.54,3.54,0,0,1,3.71,0,3.79,3.79,0,0,1,1.28,1.41,4.26,4.26,0,0,1,.47,2v.35H12.24a3.24,3.24,0,0,0,.44,1.43,2.76,2.76,0,0,0,1,1,2.62,2.62,0,0,0,1.35.36,3.37,3.37,0,0,0,1.18-.21,3,3,0,0,0,1-.59l.74.79a5,5,0,0,1-1.4.78A4.55,4.55,0,0,1,15,37.61ZM12.27,33h4.95a3.09,3.09,0,0,0-.43-1.26,2.56,2.56,0,0,0-.86-.87,2.2,2.2,0,0,0-1.16-.32,2.23,2.23,0,0,0-1.17.31,2.59,2.59,0,0,0-.87.87A3.37,3.37,0,0,0,12.27,33Z" />
  <path class="st5" d="M21.89,37.45l-3.2-7.81H20L22.48,36,25,29.64h1.25L23,37.45Z" />
  <path class="st5" d="M34.27,37.62a6.12,6.12,0,0,1-2.43-.47,7.3,7.3,0,0,1-2.16-1.43l.75-.9a7.32,7.32,0,0,0,1.9,1.35,4.85,4.85,0,0,0,2,.4,3.83,3.83,0,0,0,1.55-.3,2.43,2.43,0,0,0,1.06-.81,1.87,1.87,0,0,0,.39-1.16A1.54,1.54,0,0,0,36.74,33a4.47,4.47,0,0,0-1.94-.68L33,32a4.44,4.44,0,0,1-2.25-.93A2.34,2.34,0,0,1,30,29.3a3,3,0,0,1,.49-1.67,3.44,3.44,0,0,1,1.35-1.14,4.56,4.56,0,0,1,2-.42,7.52,7.52,0,0,1,2.32.35A7.68,7.68,0,0,1,38.3,27.5l-.64,1a6.64,6.64,0,0,0-1.82-1,5.73,5.73,0,0,0-2-.35,3.3,3.3,0,0,0-1.38.27,2.39,2.39,0,0,0-.95.74,1.72,1.72,0,0,0-.34,1.06,1.42,1.42,0,0,0,.49,1.15,3.35,3.35,0,0,0,1.62.59l1.79.3a5.41,5.41,0,0,1,2.6,1,2.48,2.48,0,0,1,.81,2A2.94,2.94,0,0,1,38,36a3.77,3.77,0,0,1-1.51,1.2A5.18,5.18,0,0,1,34.27,37.62Z" />
  <path class="st5" d="M39.92,40.79V29.64h1.15v1.12a3,3,0,0,1,1.1-.9,3.36,3.36,0,0,1,3.26.22,3.91,3.91,0,0,1,1.29,1.44,4.49,4.49,0,0,1,0,4.06A3.8,3.8,0,0,1,45.4,37a3.32,3.32,0,0,1-1.86.54,3.17,3.17,0,0,1-2.45-1.09v4.32Zm3.39-4.24a2.57,2.57,0,0,0,1.4-.39,2.81,2.81,0,0,0,1-1.07,3.45,3.45,0,0,0,0-3.07,2.86,2.86,0,0,0-1-1.06,2.57,2.57,0,0,0-1.4-.39,2.85,2.85,0,0,0-1.27.28,2.45,2.45,0,0,0-.95.79v3.82a2.52,2.52,0,0,0,1,.8A2.67,2.67,0,0,0,43.31,36.55Z" />
  <path class="st5" d="M51.26,37.59a3.45,3.45,0,0,1-1.47-.3,2.43,2.43,0,0,1-1-.84,2.18,2.18,0,0,1-.36-1.24A2.06,2.06,0,0,1,48.8,34a2.49,2.49,0,0,1,1-.8,3.68,3.68,0,0,1,1.54-.29,5.75,5.75,0,0,1,1.27.14,3.64,3.64,0,0,1,1.11.47V32.42A1.89,1.89,0,0,0,53.23,31a2.07,2.07,0,0,0-1.5-.49,4,4,0,0,0-1.11.16,6.79,6.79,0,0,0-1.26.51l-.43-.9a6.84,6.84,0,0,1,2.94-.75,3.24,3.24,0,0,1,2.24.71,2.61,2.61,0,0,1,.79,2v5.19H53.74v-.91a3.3,3.3,0,0,1-2.48,1.05Zm-1.71-2.41a1.33,1.33,0,0,0,.54,1.1,2.24,2.24,0,0,0,1.42.42,3.13,3.13,0,0,0,1.2-.23,3.2,3.2,0,0,0,1-.67V34.3a3.76,3.76,0,0,0-1-.43,4.79,4.79,0,0,0-1.18-.13,2.41,2.41,0,0,0-1.44.39A1.22,1.22,0,0,0,49.55,35.18Z" />
  <path class="st5" d="M60.29,37.58a3.63,3.63,0,0,1-2-.54,4,4,0,0,1-1.39-1.46,4.33,4.33,0,0,1,0-4.08,4,4,0,0,1,1.39-1.45,3.63,3.63,0,0,1,2-.54,4.44,4.44,0,0,1,1.65.32,4.19,4.19,0,0,1,1.36.9l-.76.81a2.91,2.91,0,0,0-1-.72,3,3,0,0,0-1.2-.25A2.46,2.46,0,0,0,59,31,2.81,2.81,0,0,0,58,32a3.25,3.25,0,0,0,0,3,2.89,2.89,0,0,0,1,1.07,2.46,2.46,0,0,0,1.39.4,3,3,0,0,0,2.2-1l.76.82a4.36,4.36,0,0,1-1.36.9A4.44,4.44,0,0,1,60.29,37.58Z" />
  <path class="st5" d="M67.73,37.61a3.69,3.69,0,0,1-2-.54,3.87,3.87,0,0,1-1.39-1.45,4.24,4.24,0,0,1-.51-2.08,4.38,4.38,0,0,1,.48-2.06A3.83,3.83,0,0,1,65.66,30a3.54,3.54,0,0,1,3.71,0,3.79,3.79,0,0,1,1.28,1.41,4.26,4.26,0,0,1,.47,2v.35H65a3.24,3.24,0,0,0,.44,1.43,2.76,2.76,0,0,0,1,1,2.66,2.66,0,0,0,1.36.36A3.36,3.36,0,0,0,69,36.37a3,3,0,0,0,1-.59l.74.79a5,5,0,0,1-1.4.78A4.55,4.55,0,0,1,67.73,37.61ZM65,33h5a3.09,3.09,0,0,0-.43-1.26,2.56,2.56,0,0,0-.86-.87,2.2,2.2,0,0,0-1.16-.32,2.23,2.23,0,0,0-1.17.31,2.59,2.59,0,0,0-.87.87A3.37,3.37,0,0,0,65,33Z" />
  <path class="st5" d="M75.14,37.61a5.12,5.12,0,0,1-1.78-.3A3.78,3.78,0,0,1,72,36.46l.62-.77a5.71,5.71,0,0,0,1.3.74,3.17,3.17,0,0,0,1.21.23,2.33,2.33,0,0,0,1.41-.4,1.18,1.18,0,0,0,.56-1,.92.92,0,0,0-.33-.75,2.47,2.47,0,0,0-1.08-.42l-1.28-.22a3.37,3.37,0,0,1-1.67-.71,1.71,1.71,0,0,1-.53-1.34,2,2,0,0,1,.36-1.18,2.38,2.38,0,0,1,1-.81,3.36,3.36,0,0,1,1.45-.3,5.08,5.08,0,0,1,1.52.23,5.79,5.79,0,0,1,1.46.75l-.58.81a5,5,0,0,0-1.21-.63,4.07,4.07,0,0,0-1.24-.2,2,2,0,0,0-1.23.34,1.06,1.06,0,0,0-.46.91,1,1,0,0,0,.29.74,2.31,2.31,0,0,0,1,.38l1.31.24a3.36,3.36,0,0,1,1.73.72,1.81,1.81,0,0,1,.55,1.38,2.13,2.13,0,0,1-.4,1.24,2.79,2.79,0,0,1-1.09.87A3.7,3.7,0,0,1,75.14,37.61Z" />
</svg>